<?xml version="1.0" encoding="UTF-8"?>
<svg id="Layer_2" data-name="Layer 2" xmlns="http://www.w3.org/2000/svg" viewBox="0 0 496.66 437.42">
  <defs>
    <style>
      .cls-1 {
        fill: #fff;
      }
    </style>
  </defs>
  <g id="Layer_1-2" data-name="Layer 1">
    <g>
      <g>
        <path class="cls-1" d="M234.35,77.04v101.16c0,15.79-19.09,23.69-30.25,12.53l-70.49-70.49c-7.67-7.68-6.67-20.34,2.03-26.83,22.6-16.85,49.15-28.68,78.02-33.85,10.8-1.93,20.69,6.51,20.69,17.48"/>
        <path class="cls-1" d="M187.47,292.69l-84.46,66.09c-2.06-1.15-3.91-2.76-5.43-4.78-15.05-20.17-26.14-43.53-32.02-68.85-2.59-11.09,5.91-21.66,17.3-21.66h91.1c15.31,0,23.21,17.92,13.5,29.2Z"/>
        <path class="cls-1" d="M174,238.6h-94.17c-10.78,0-18.96-9.53-17.56-20.22,3.62-27.78,13.36-53.61,27.83-76.14,6.1-9.5,19.45-10.88,27.44-2.9l69,69.01c11.16,11.16,3.26,30.25-12.53,30.25"/>
        <path class="cls-1" d="M360,120.23l-70.52,70.52c-11.16,11.16-30.25,3.26-30.25-12.53v-101.2c0-10.97,9.89-19.41,20.68-17.48,28.88,5.16,55.46,17,78.06,33.86,8.7,6.49,9.7,19.15,2.03,26.83"/>
        <path class="cls-1" d="M380.53,168.28l29.35,32.95-47.94,37.39h-42.32c-15.78,0-23.69-19.1-12.55-30.27l69.02-68.99c7.99-7.99,21.33-6.61,27.43,2.9,4.76,7.4,9,15.17,12.66,23.24l-35.65,2.79Z"/>
      </g>
      <circle class="cls-1" cx="248.53" cy="242.72" r="40.4"/>
      <path class="cls-1" d="M496.66,177.59l-77.94,6.06,17.79,19.97-132.43,103.33-48.62-44.26-166.11,129.99-26.64,20.88c3.24,3.66,6.61,7.23,10.07,10.69,4.56,4.56,9.31,8.95,14.24,13.17l27.24-21.33,139.58-109.25,48.56,44.26,156.63-122.21,16.21,18.19,21.43-69.49Z"/>
      <path class="cls-1" d="M424.25,72.79C379.35,27.83,317.09-.03,248.52,0,179.95-.03,117.72,27.83,72.79,72.79,27.86,117.69,0,179.93,0,248.52c0,56.69,19.05,109.08,51.09,150.92l26.59-20.85c-27.6-36.1-43.92-81.11-43.92-130.07,0-59.37,24-112.94,62.91-151.87,38.91-38.88,92.48-62.88,151.85-62.88s112.94,24,151.87,62.88c18.99,19.05,34.47,41.58,45.27,66.57l35.31-2.76c-12.58-33.23-32.07-63.05-56.72-87.67Z"/>
    </g>
  </g>
</svg>