<svg xmlns="http://www.w3.org/2000/svg" width="112" height="112" viewBox="0 0 112 112" fill="none"><g clip-path="url(#clip0_71_140)"><path d="M58.2567 79.1388L55.9794 81.0861C55.9794 81.0861 50.5607 85.7053 38.7204 70.2887C26.8802 54.8722 32.299 50.253 32.299 50.253L33.7355 49.0237C37.2687 46.0058 38.136 40.6577 35.7691 36.4366L30.9366 27.8063C28.0059 22.5783 21.4277 21.24 17.0493 24.9755L9.19844 31.6714C7.03117 33.5254 5.44472 36.051 5.29128 39.0278C4.90117 46.64 6.42506 63.2591 22.4677 84.1557C39.4854 106.307 57.3552 108.996 64.7707 109.042C67.1192 109.061 69.2698 108.016 71.0762 106.475L78.1823 100.407C82.9858 96.3109 82.5886 88.3882 77.3903 84.6257L69.3059 78.765C65.8938 76.2972 61.4096 76.4454 58.2572 79.1343" fill="#103313"></path><path fill-rule="evenodd" clip-rule="evenodd" d="M70.4247 59.9753C86.6513 59.9753 99.8048 46.8218 99.8048 30.5952C99.8048 28.1599 99.5086 25.7939 98.9501 23.5312C103.902 28.1298 107 34.6969 107 41.9879C107 55.8965 95.7255 67.1709 81.817 67.1709C77.7877 67.1709 73.9801 66.224 70.6056 64.5418C69.7144 64.0802 68.6851 63.961 67.712 64.2068L62.1063 65.7077C61.5515 65.8558 60.9674 65.8553 60.4128 65.7063C59.8582 65.5573 59.3526 65.265 58.9467 64.8588C58.5407 64.4526 58.2488 63.9468 58.1001 63.3921C57.9514 62.8374 57.9513 62.2534 58.0997 61.6986L59.1588 57.7363C62.6269 59.1786 66.4326 59.9753 70.4247 59.9753ZM68.2212 20.7865C69.5974 19.9022 71.0653 19.1482 72.6076 18.542C72.6213 18.6412 72.6282 18.7418 72.6282 18.8431V35.2825C72.3582 35.1394 72.055 35.0626 71.7438 35.0626C71.2429 35.0626 70.7625 35.2616 70.4083 35.6158C70.0541 35.97 69.8551 36.4504 69.8551 36.9513V44.4758C69.4844 44.3766 69.1427 44.1814 68.8666 43.9053C68.4534 43.4921 68.2212 42.9316 68.2212 42.3472V20.7865ZM56.9692 37.869C57.5627 34.2617 58.9226 30.9128 60.8762 27.9949V36.4712C60.8762 37.0556 60.644 37.6161 60.2308 38.0293C59.8176 38.4426 59.2571 38.6747 58.6727 38.6747C58.0883 38.6747 57.5278 38.4426 57.1146 38.0293C57.0633 37.9781 57.0148 37.9245 56.9692 37.869ZM83.7349 23.1611C83.3216 22.7478 82.7612 22.5157 82.1768 22.5157C81.5924 22.5157 81.0319 22.7478 80.6186 23.1611C80.2054 23.5743 79.9733 24.1348 79.9733 24.7192V31.505C80.0506 31.1571 80.2255 30.8352 80.4815 30.5792C80.8357 30.225 81.3161 30.026 81.817 30.026C82.3179 30.026 82.7983 30.225 83.1525 30.5792C83.5067 30.9334 83.7057 31.4138 83.7057 31.9148V38.058C83.7155 38.0485 83.7252 38.039 83.7349 38.0293C84.1481 37.6161 84.3803 37.0556 84.3803 36.4712V24.7192C84.3803 24.1348 84.1481 23.5743 83.7349 23.1611Z" fill="#103313"></path><path fill-rule="evenodd" clip-rule="evenodd" d="M93.809 28.7972C93.809 42.7057 82.5346 53.9801 68.6261 53.9801C64.5968 53.9801 60.7891 53.0333 57.4146 51.351C56.5235 50.8894 55.4941 50.7703 54.5211 51.0161L48.9154 52.517C48.3605 52.6651 47.7765 52.6646 47.2219 52.5156C46.6673 52.3666 46.1617 52.0743 45.7557 51.6681C45.3498 51.2619 45.0578 50.7561 44.9092 50.2014C44.7605 49.6467 44.7604 49.0626 44.9088 48.5079L46.4072 42.9022C46.6516 41.9296 46.5316 40.9013 46.0697 40.0112C44.3362 36.5275 43.437 32.6883 43.4431 28.7972C43.4431 14.8887 54.7175 3.61426 68.6261 3.61426C82.5346 3.61426 93.809 14.8887 93.809 28.7972ZM68.6261 16.8353C69.127 16.8353 69.6074 17.0343 69.9616 17.3885C70.3158 17.7427 70.5148 18.2231 70.5148 18.724V38.8704C70.5148 39.3713 70.3158 39.8517 69.9616 40.2059C69.6074 40.5601 69.127 40.7591 68.6261 40.7591C68.1252 40.7591 67.6448 40.5601 67.2905 40.2059C66.9363 39.8517 66.7374 39.3713 66.7374 38.8704V18.724C66.7374 18.2231 66.9363 17.7427 67.2905 17.3885C67.6448 17.0343 68.1252 16.8353 68.6261 16.8353ZM60.4416 23.7606C60.4416 23.2597 60.2426 22.7793 59.8884 22.4251C59.5342 22.0709 59.0538 21.8719 58.5529 21.8719C58.052 21.8719 57.5716 22.0709 57.2174 22.4251C56.8632 22.7793 56.6642 23.2597 56.6642 23.7606V33.8338C56.6642 34.3347 56.8632 34.8151 57.2174 35.1693C57.5716 35.5235 58.052 35.7225 58.5529 35.7225C59.0538 35.7225 59.5342 35.5235 59.8884 35.1693C60.2426 34.8151 60.4416 34.3347 60.4416 33.8338V23.7606ZM78.6992 21.8719C79.2002 21.8719 79.6806 22.0709 80.0348 22.4251C80.389 22.7793 80.588 23.2597 80.588 23.7606V33.8338C80.588 34.3347 80.389 34.8151 80.0348 35.1693C79.6806 35.5235 79.2002 35.7225 78.6992 35.7225C78.1983 35.7225 77.7179 35.5235 77.3637 35.1693C77.0095 34.8151 76.8105 34.3347 76.8105 33.8338V23.7606C76.8105 23.2597 77.0095 22.7793 77.3637 22.4251C77.7179 22.0709 78.1983 21.8719 78.6992 21.8719Z" fill="#103313"></path></g><defs><clipPath id="clip0_71_140"><rect width="112" height="112" fill="white"></rect></clipPath></defs></svg>