<svg xmlns="http://www.w3.org/2000/svg" width="100" height="100" viewBox="0 0 100 100" fill="none"><g clip-path="url(#clip0_77_34)"><path d="M59.7916 90.1668L58.5539 88.5257C55.7731 84.8284 55.0798 79.1767 56.8423 74.5002M40.2083 90.1668L41.4459 88.5257C44.2268 84.8284 44.92 79.1767 43.1575 74.5002M30.4166 90.1668H69.5833M57.8333 11.8335H42.1666C29.3199 11.8335 22.9005 11.8335 18.3493 15.0217C16.6653 16.2009 15.2006 17.6656 14.0214 19.3496C10.8333 23.8968 10.8333 30.3202 10.8333 43.1668C10.8333 56.0135 10.8333 62.4329 14.0214 66.9841C15.2006 68.6681 16.6653 70.1328 18.3493 71.312C22.8966 74.5002 29.3199 74.5002 42.1666 74.5002H57.8333C70.6799 74.5002 77.0993 74.5002 81.6505 71.312C83.3345 70.1328 84.7992 68.6681 85.9784 66.9841C89.1666 62.4368 89.1666 56.0135 89.1666 43.1668C89.1666 30.3202 89.1666 23.9007 85.9784 19.3496C84.7992 17.6656 83.3345 16.2009 81.6505 15.0217C77.1033 11.8335 70.6799 11.8335 57.8333 11.8335Z" stroke="#FFD62B" stroke-width="6" stroke-linecap="round" stroke-linejoin="round"></path><path d="M31 51.1333L39.6752 42.4582C40.3847 41.7489 41.3468 41.3504 42.35 41.3504C43.3532 41.3504 44.3154 41.7489 45.0248 42.4582L51.0252 48.4585C51.7347 49.1678 52.6968 49.5662 53.7 49.5662C54.7032 49.5662 55.6654 49.1678 56.3748 48.4585L68.8334 36M68.8334 36V45.4583M68.8334 36H59.375" stroke="#FFD62B" stroke-width="6" stroke-linecap="round" stroke-linejoin="round"></path></g><defs><clipPath id="clip0_77_34"><rect width="100" height="100" fill="white"></rect></clipPath></defs></svg>