<svg xmlns="http://www.w3.org/2000/svg" width="100" height="100" viewBox="0 0 100 100" fill="none"><g clip-path="url(#clip0_77_22)"><path d="M55.3501 89.2127L49.1251 74.8127C55.1251 72.6377 60.6376 69.7502 65.7376 66.3002L55.3126 89.2127M27.1876 52.8752L12.7876 46.6877L35.7001 36.2627C32.1819 41.4241 29.3222 47.0048 27.1876 52.8752ZM87.2251 14.8127C87.2251 14.8127 95.1751 33.4127 73.9126 54.7502C65.6626 62.8877 56.7376 67.8752 48.6751 71.0252C45.9001 72.0752 42.7876 71.4002 40.7251 69.3002L32.7376 61.3127C30.6376 59.2127 29.9626 56.1377 30.9751 53.3252C34.1251 45.3752 39.1126 36.3377 47.2501 28.0877C68.5876 6.81017 87.2251 14.8127 87.2251 14.8127ZM29.4376 88.5002H24.1501L39.4876 73.1252C40.6126 73.9127 41.8501 74.4752 43.1251 74.8127L29.4376 88.5002ZM13.5001 88.5002V83.2127L31.3876 65.2877L36.7501 70.6127L18.7876 88.5002H13.5001ZM13.5001 77.8502V72.5627L27.1876 58.8752C27.5251 60.1877 28.0876 61.4252 28.8751 62.5127L13.5001 77.8502ZM66.0001 28.5002C64.011 28.5002 62.1033 29.2903 60.6968 30.6969C59.2903 32.1034 58.5001 34.011 58.5001 36.0002C58.5001 37.9893 59.2903 39.8969 60.6968 41.3035C62.1033 42.71 64.011 43.5002 66.0001 43.5002C70.1626 43.5002 73.5001 40.1627 73.5001 36.0002C73.5001 34.011 72.7099 32.1034 71.3034 30.6969C69.8969 29.2903 67.9892 28.5002 66.0001 28.5002Z" fill="#FFD62B"></path></g><defs><clipPath id="clip0_77_22"><rect width="100" height="100" fill="white"></rect></clipPath></defs></svg>