<svg xmlns="http://www.w3.org/2000/svg" width="100" height="100" viewBox="0 0 100 100" fill="none"><g clip-path="url(#clip0_77_7)"><path d="M76.3168 34.7C82.5852 34.7 87.6668 29.6185 87.6668 23.35C87.6668 17.0816 82.5852 12 76.3168 12C70.0484 12 64.9668 17.0816 64.9668 23.35C64.9668 29.6185 70.0484 34.7 76.3168 34.7Z" stroke="#FFD62B" stroke-width="6"></path><path d="M30.917 57.4L39.5922 48.7248C40.3017 48.0155 41.2638 47.617 42.267 47.617C43.2702 47.617 44.2323 48.0155 44.9418 48.7248L50.9422 54.7251C51.6517 55.4344 52.6138 55.8328 53.617 55.8328C54.6202 55.8328 55.5824 55.4344 56.2918 54.7251L68.7504 42.2666M68.7504 42.2666V51.7249M68.7504 42.2666H59.292" stroke="#FFD62B" stroke-width="6" stroke-linecap="round" stroke-linejoin="round"></path><path d="M87.6667 44.1584V49.8334C87.6667 67.668 87.6667 76.5854 82.1242 82.1242C76.5891 87.6667 67.668 87.6667 49.8334 87.6667C31.9987 87.6667 23.0814 87.6667 17.5388 82.1242C12 76.5891 12 67.668 12 49.8334C12 45.5658 12 41.8051 12.0757 38.4834M55.5084 12H49.8334C31.9987 12 23.0814 12 17.5388 17.5388C15.8741 19.2073 14.7051 21.1822 13.8917 23.6148" stroke="#FFD62B" stroke-width="6" stroke-linecap="round"></path></g><defs><clipPath id="clip0_77_7"><rect width="100" height="100" fill="white"></rect></clipPath></defs></svg>