<svg xmlns="http://www.w3.org/2000/svg" width="100" height="100" viewBox="0 0 100 100" fill="none"><g clip-path="url(#clip0_77_48)"><g clip-path="url(#clip1_77_48)"><path fill-rule="evenodd" clip-rule="evenodd" d="M68.0757 7.48081C68.3571 6.4395 69.3032 5.74327 70.4099 5.77482C71.4909 5.82085 72.3962 6.59831 72.6024 7.65872L76.6458 28.4604C82.0626 28.508 86.8909 32.3604 87.9633 37.8774C89.0357 43.3943 86.003 48.7795 80.9984 50.8528L85.041 71.6499C85.2471 72.7103 84.6998 73.7749 83.7139 74.2179C83.5493 74.2912 83.3768 74.3455 83.1998 74.3795C82.3451 74.5457 81.4573 74.2249 80.9114 73.5152C69.2261 58.3257 52.3903 61.3943 52.2211 61.4272L36.2233 64.5369L40.6657 87.3908L44.2172 86.7005C43.0283 83.1463 41.5656 76.8419 44.0273 72.0088C45.6204 68.8815 48.4794 66.898 52.5382 66.1091L53.4267 70.6798C50.8168 71.1872 49.1002 72.313 48.1792 74.1143C46.0868 78.2114 48.4309 85.1462 49.505 87.4752C49.8065 88.1233 49.7915 88.8757 49.4693 89.5124C49.1426 90.1498 48.5384 90.6041 47.839 90.74L39.2688 92.4059C38.0073 92.6511 36.7853 91.8308 36.5392 90.5647L31.6526 65.4253L29.3672 65.8696C23.064 67.0948 16.9442 62.9669 15.719 56.6638L15.2747 54.3784L12.9893 54.8226C11.7278 55.0678 10.5058 54.2475 10.2597 52.9814C10.0145 51.7198 10.8393 50.497 12.1008 50.2517L14.3862 49.8075L13.942 47.5221C12.7177 41.2235 16.8447 35.0991 23.1478 33.8739L45.9972 29.4324C46.682 29.2946 62.9592 25.8413 68.0757 7.48081ZM44.6049 34.4466L24.0363 38.4448C20.2563 39.1795 17.778 42.8537 18.5128 46.6337L20.2897 55.7753C21.0245 59.5553 24.6986 62.0335 28.4787 61.2988L49.0473 57.3006L44.6049 34.4466ZM77.5716 33.2232L80.0727 46.09C82.5444 44.6276 83.9709 41.7414 83.3925 38.7659C82.8141 35.7903 80.4111 33.6531 77.5716 33.2232Z" fill="#FFD62B"></path></g></g><defs><clipPath id="clip0_77_48"><rect width="100" height="100" fill="white"></rect></clipPath><clipPath id="clip1_77_48"><rect width="79.1579" height="79.1579" fill="white" transform="translate(3.59619 18.7007) rotate(-11)"></rect></clipPath></defs></svg>