<?xml version="1.0" encoding="UTF-8"?>
<svg id="Layer_1" data-name="Layer 1" xmlns="http://www.w3.org/2000/svg" viewBox="0 0 1300 900">
  <g>
    <g>
      <path d="M399.36,421.35v20.46c0,3.19-3.86,4.79-6.12,2.53l-14.25-14.25c-1.55-1.55-1.35-4.11.41-5.42,4.57-3.41,9.94-5.8,15.78-6.85,2.18-.39,4.18,1.32,4.18,3.54"/>
      <path d="M389.88,464.96l-17.08,13.36c-.42-.23-.79-.56-1.1-.97-3.04-4.08-5.29-8.8-6.47-13.92-.52-2.24,1.19-4.38,3.5-4.38h18.42c3.1,0,4.69,3.62,2.73,5.91Z"/>
      <path d="M387.16,454.02h-19.04c-2.18,0-3.83-1.93-3.55-4.09.73-5.62,2.7-10.84,5.63-15.4,1.23-1.92,3.93-2.2,5.55-.59l13.95,13.95c2.26,2.26.66,6.12-2.53,6.12"/>
      <path d="M424.77,430.09l-14.26,14.26c-2.26,2.26-6.12.66-6.12-2.53v-20.46c0-2.22,2-3.93,4.18-3.54,5.84,1.04,11.21,3.44,15.79,6.85,1.76,1.31,1.96,3.87.41,5.42"/>
      <path d="M428.92,439.8l5.93,6.66-9.7,7.56h-8.56c-3.19,0-4.79-3.86-2.54-6.12l13.96-13.95c1.62-1.62,4.31-1.34,5.55.59.96,1.5,1.82,3.07,2.56,4.7l-7.21.56Z"/>
    </g>
    <circle cx="402.23" cy="454.85" r="8.17"/>
    <path d="M452.41,441.68l-15.76,1.23,3.6,4.04-26.78,20.9-9.83-8.95-33.59,26.29-5.39,4.22c.65.74,1.34,1.46,2.04,2.16.92.92,1.88,1.81,2.88,2.66l5.51-4.31,28.23-22.09,9.82,8.95,31.67-24.71,3.28,3.68,4.33-14.05Z"/>
    <path d="M437.76,420.49c-9.08-9.09-21.67-14.72-35.54-14.72-13.87,0-26.45,5.63-35.54,14.72-9.09,9.08-14.72,21.67-14.72,35.54,0,11.46,3.85,22.06,10.33,30.52l5.38-4.22c-5.58-7.3-8.88-16.4-8.88-26.3,0-12.01,4.85-22.84,12.72-30.71,7.87-7.86,18.7-12.72,30.71-12.72s22.84,4.85,30.71,12.72c3.84,3.85,6.97,8.41,9.15,13.46l7.14-.56c-2.54-6.72-6.49-12.75-11.47-17.73Z"/>
  </g>
  <g>
    <g>
      <path d="M471.88,409.08h9.83v37.42h18.22v8.45h-28.05v-45.88Z"/>
      <path d="M510.25,423.01c2.56-1.42,5.52-2.13,8.88-2.13s6.41.67,9.01,2,4.63,3.21,6.09,5.64,2.22,5.28,2.26,8.55c0,1.18-.09,2.23-.26,3.15h-24.45v.26c.22,2.45,1,4.37,2.36,5.77,1.35,1.4,3.21,2.1,5.57,2.1,1.88,0,3.44-.4,4.69-1.21,1.25-.81,2.06-2,2.46-3.57h9.11c-.35,2.23-1.2,4.24-2.56,6.03s-3.15,3.2-5.37,4.23c-2.23,1.03-4.78,1.54-7.67,1.54-3.76,0-7-.7-9.73-2.1s-4.83-3.4-6.29-6c-1.46-2.6-2.2-5.63-2.2-9.08s.71-6.54,2.13-9.14,3.41-4.61,5.96-6.03ZM524.74,429.43c-1.38-1.11-3.11-1.67-5.21-1.67s-3.7.58-5.08,1.74-2.2,2.72-2.46,4.69h15.27c-.31-2.05-1.15-3.64-2.52-4.75Z"/>
      <path d="M594.3,436.48v18.55h-9.24v-18.87c0-5.11-1.94-7.67-5.83-7.67-2.01,0-3.63.71-4.85,2.13s-1.83,3.4-1.83,5.93v18.48h-9.24v-18.87c0-5.11-1.97-7.67-5.9-7.67-2.01,0-3.62.73-4.82,2.2-1.2,1.46-1.8,3.44-1.8,5.93v18.42h-9.24v-33.75h8.06l.85,4.19c1.14-1.44,2.49-2.56,4.06-3.34,1.57-.79,3.54-1.2,5.9-1.25,4.81,0,8.15,1.9,10.03,5.7,1.22-1.83,2.83-3.24,4.82-4.23s4.25-1.47,6.78-1.47c3.63,0,6.58,1.2,8.85,3.6,2.27,2.4,3.41,6.4,3.41,11.99Z"/>
      <path d="M601.02,447.16c-1.46-2.62-2.2-5.64-2.2-9.04s.73-6.42,2.2-9.04c1.46-2.62,3.54-4.64,6.23-6.06,2.69-1.42,5.8-2.13,9.34-2.13s6.65.71,9.34,2.13c2.69,1.42,4.76,3.44,6.23,6.06,1.46,2.62,2.2,5.64,2.2,9.04s-.73,6.48-2.2,9.08c-1.46,2.6-3.54,4.61-6.23,6.03-2.69,1.42-5.8,2.13-9.34,2.13s-6.65-.71-9.34-2.13c-2.69-1.42-4.76-3.44-6.23-6.06ZM624.97,438.11c0-2.88-.75-5.22-2.26-7.01-1.51-1.79-3.55-2.69-6.13-2.69s-4.55.9-6.06,2.69c-1.51,1.79-2.26,4.13-2.26,7.01s.75,5.22,2.26,7.01c1.51,1.79,3.53,2.69,6.06,2.69s4.62-.9,6.13-2.69c1.51-1.79,2.26-4.13,2.26-7.01Z"/>
      <path d="M672.29,436.67v18.29h-9.24v-17.76c0-5.81-2.27-8.72-6.82-8.72-2.4,0-4.26.81-5.57,2.42s-1.97,3.89-1.97,6.82v17.24h-9.24v-33.69h8.06l.85,4.19c1.18-1.44,2.6-2.57,4.26-3.38,1.66-.81,3.71-1.21,6.16-1.21,3.93,0,7.17,1.22,9.7,3.67,2.53,2.45,3.8,6.49,3.8,12.12Z"/>
      <path d="M708.07,433.07v21.89h-8.13l-.72-4.26c-1.27,1.53-2.72,2.69-4.36,3.47-1.64.79-3.59,1.18-5.87,1.18-3.71,0-6.67-.87-8.88-2.62-2.21-1.75-3.31-4.19-3.31-7.34,0-3.58,1.32-6.33,3.96-8.26,2.64-1.92,6.5-2.88,11.57-2.88h6.62v-1.7c0-1.53-.56-2.73-1.67-3.6-1.11-.87-2.61-1.31-4.49-1.31-1.75,0-3.18.37-4.29,1.11-1.11.74-1.78,1.75-2,3.01h-8.91c.31-3.45,1.84-6.13,4.59-8.03,2.75-1.9,6.4-2.85,10.94-2.85s8.44,1.04,11.04,3.11,3.9,5.1,3.9,9.08ZM698.96,441.06v-.66h-6.75c-1.92,0-3.42.38-4.49,1.15s-1.61,1.85-1.61,3.24c0,1.18.45,2.12,1.34,2.82.9.7,2.11,1.05,3.64,1.05,2.4,0,4.3-.69,5.7-2.06,1.4-1.38,2.12-3.22,2.16-5.54Z"/>
      <path d="M747.59,454.96h-8.06l-.92-4.65c-2.58,3.36-6.07,5.05-10.49,5.05-2.97,0-5.64-.71-8-2.13s-4.21-3.44-5.54-6.06-2-5.66-2-9.11.67-6.41,2-9.01,3.19-4.61,5.57-6.03c2.38-1.42,5.06-2.13,8.03-2.13,4.37,0,7.75,1.53,10.16,4.59v-16.38h9.24v45.88ZM738.48,438.18c0-2.93-.74-5.29-2.23-7.08-1.49-1.79-3.47-2.69-5.96-2.69s-4.49.9-6,2.69c-1.51,1.79-2.26,4.13-2.26,7.01s.75,5.22,2.26,7.01c1.51,1.79,3.51,2.69,6,2.69s4.48-.88,5.96-2.65,2.23-4.1,2.23-6.98Z"/>
      <path d="M760.8,423.01c2.56-1.42,5.52-2.13,8.88-2.13s6.41.67,9.01,2,4.63,3.21,6.09,5.64,2.22,5.28,2.26,8.55c0,1.18-.09,2.23-.26,3.15h-24.45v.26c.22,2.45,1,4.37,2.36,5.77,1.35,1.4,3.21,2.1,5.57,2.1,1.88,0,3.44-.4,4.69-1.21,1.25-.81,2.06-2,2.46-3.57h9.11c-.35,2.23-1.2,4.24-2.56,6.03s-3.15,3.2-5.37,4.23c-2.23,1.03-4.78,1.54-7.67,1.54-3.76,0-7-.7-9.73-2.1s-4.83-3.4-6.29-6c-1.46-2.6-2.2-5.63-2.2-9.08s.71-6.54,2.13-9.14,3.41-4.61,5.96-6.03ZM775.28,429.43c-1.38-1.11-3.11-1.67-5.21-1.67s-3.7.58-5.08,1.74-2.2,2.72-2.46,4.69h15.27c-.31-2.05-1.15-3.64-2.52-4.75Z"/>
      <path d="M808.5,420.88v34.08h-5.7v-34.08h5.7Z"/>
      <path d="M847.04,454.96h-4.65l-.72-5.37c-2.8,3.84-6.62,5.77-11.47,5.77-3.1,0-5.87-.68-8.29-2.03s-4.33-3.32-5.7-5.9c-1.38-2.58-2.06-5.64-2.06-9.17s.69-6.33,2.06-8.91c1.38-2.58,3.29-4.59,5.73-6.03,2.45-1.44,5.2-2.16,8.26-2.16,2.71,0,5.02.49,6.95,1.47,1.92.98,3.43,2.33,4.52,4.03v-17.56h5.37v45.88ZM840.35,444.7c.92-1.86,1.38-3.96,1.38-6.32s-.46-4.55-1.38-6.46c-.92-1.9-2.22-3.38-3.9-4.42-1.68-1.05-3.59-1.57-5.73-1.57-3.32,0-6,1.15-8.03,3.44s-3.05,5.25-3.05,8.88,1.02,6.59,3.05,8.88c2.03,2.29,4.71,3.44,8.03,3.44,2.14,0,4.05-.51,5.73-1.54,1.68-1.03,2.98-2.47,3.9-4.33Z"/>
      <path d="M859.49,423.27c2.4-1.42,5.16-2.13,8.26-2.13s5.77.63,8.13,1.9c2.36,1.27,4.22,3.1,5.57,5.5,1.35,2.4,2.08,5.22,2.16,8.45,0,.48-.04,1.25-.13,2.29h-25.95v.46c.09,3.28,1.09,5.9,3.01,7.86,1.92,1.97,4.43,2.95,7.54,2.95,2.4,0,4.45-.6,6.13-1.8,1.68-1.2,2.81-2.87,3.38-5.01h5.44c-.66,3.41-2.29,6.19-4.92,8.36-2.62,2.16-5.83,3.24-9.63,3.24-3.32,0-6.23-.71-8.72-2.13s-4.42-3.43-5.8-6.03-2.06-5.58-2.06-8.95.67-6.4,2-8.98,3.2-4.58,5.6-6ZM874.86,428.22c-1.86-1.57-4.21-2.36-7.04-2.36-2.53,0-4.76.83-6.68,2.49-1.92,1.66-3.01,3.82-3.28,6.49h20.19c-.26-2.84-1.32-5.05-3.18-6.62Z"/>
      <path d="M915.85,433.2v21.76h-4.65l-.46-5.24c-2.62,3.76-6.36,5.64-11.21,5.64-3.71,0-6.7-.87-8.95-2.62-2.25-1.75-3.38-4.13-3.38-7.14,0-3.36,1.15-5.94,3.44-7.73,2.29-1.79,5.63-2.69,9.99-2.69h9.83v-2.29c0-2.18-.73-3.89-2.2-5.11-1.46-1.22-3.51-1.83-6.13-1.83-2.32,0-4.23.51-5.73,1.54-1.51,1.03-2.44,2.39-2.79,4.1h-5.37c.39-3.28,1.85-5.83,4.36-7.67,2.51-1.83,5.78-2.75,9.8-2.75,4.28,0,7.59,1.04,9.93,3.11,2.34,2.08,3.51,5.06,3.51,8.95ZM900.12,439.69c-4.98,0-7.47,1.86-7.47,5.57,0,1.66.66,2.99,1.97,4,1.31,1,3.08,1.51,5.31,1.51,3.28,0,5.85-.86,7.73-2.59s2.82-4.01,2.82-6.85v-1.64h-10.35Z"/>
      <path d="M928.27,448.86c1.68,1.27,3.86,1.9,6.52,1.9,2.36,0,4.27-.47,5.74-1.41,1.46-.94,2.2-2.17,2.2-3.7,0-1.31-.35-2.32-1.05-3.01-.7-.7-1.61-1.18-2.72-1.44s-2.7-.52-4.75-.79c-2.88-.35-5.24-.81-7.08-1.38-1.83-.57-3.32-1.47-4.46-2.72s-1.7-2.96-1.7-5.14c0-1.97.56-3.71,1.67-5.24,1.11-1.53,2.63-2.72,4.55-3.57,1.92-.85,4.08-1.28,6.49-1.28,3.93,0,7.13.92,9.6,2.75s3.83,4.46,4.1,7.86h-5.37c-.22-1.75-1.07-3.19-2.56-4.33s-3.34-1.7-5.57-1.7-4.11.47-5.5,1.41c-1.4.94-2.1,2.17-2.1,3.7,0,1.14.33,2.01.98,2.62s1.5,1.03,2.52,1.25c1.03.22,2.59.46,4.69.72,2.93.35,5.34.83,7.24,1.44,1.9.61,3.43,1.59,4.59,2.95,1.16,1.35,1.74,3.19,1.74,5.5,0,2.01-.59,3.78-1.77,5.31s-2.77,2.71-4.78,3.54-4.24,1.25-6.69,1.25c-4.37,0-7.88-1-10.52-3.01-2.64-2.01-3.99-4.81-4.03-8.39h5.37c.09,2.01.97,3.65,2.65,4.92Z"/>
    </g>
    <g>
      <path d="M475.92,467.62l6.06,14.91,5.95-14.91h3.95v18.94h-3v-13.94l-5.68,13.94h-2.62l-5.68-13.94v13.94h-3v-18.94h4.03Z"/>
      <path d="M515,467.62h3.71l7.06,18.94h-3.33l-1.79-4.68h-7.77l-1.76,4.68h-3.22l7.09-18.94ZM519.79,479.23l-3.03-8.25-3,8.25h6.03Z"/>
      <path d="M552.73,468.37c.99.5,1.76,1.2,2.31,2.11.55.91.83,1.97.83,3.18s-.33,2.37-1,3.33c-.67.96-1.56,1.63-2.68,2.03l4.01,7.55h-3.46l-3.6-6.87h-4.22v6.87h-3.11v-18.94h7.47c1.32,0,2.47.25,3.46.74ZM549.02,476.98c1.12,0,2.01-.3,2.67-.91.66-.6.99-1.41.99-2.42s-.33-1.82-.99-2.42c-.66-.6-1.55-.91-2.67-.91h-4.11v6.66h4.11Z"/>
      <path d="M575.9,467.62v9.77l8.69-9.77h3.79l-6.95,7.9,7.47,11.04h-3.76l-5.93-8.66-3.3,3.71v4.95h-3.11v-18.94h3.11Z"/>
      <path d="M617.04,467.62v2.76h-9.25v5.25h7.63v2.68h-7.63v5.49h9.58v2.76h-12.69v-18.94h12.37Z"/>
      <path d="M647.32,467.62v2.76h-5.84v16.18h-3.11v-16.18h-5.85v-2.76h14.8Z"/>
      <path d="M666.87,467.62v18.94h-3.11v-18.94h3.11Z"/>
      <path d="M684.41,467.62h2.84l9.23,13.42v-13.42h3.06v18.94h-2.84l-9.23-13.42v13.42h-3.06v-18.94Z"/>
      <path d="M720.68,468.66c1.39-.8,3.01-1.2,4.87-1.2,2.18,0,4,.6,5.44,1.79,1.44,1.19,2.33,2.8,2.65,4.82h-3.08c-.31-1.21-.91-2.16-1.8-2.84-.89-.69-1.99-1.03-3.29-1.03-1.19,0-2.23.29-3.13.88-.89.59-1.58,1.4-2.07,2.44-.49,1.04-.73,2.23-.73,3.59s.24,2.55.72,3.59c.48,1.04,1.16,1.85,2.06,2.44.89.59,1.93.88,3.13.88,1.52,0,2.78-.42,3.8-1.25,1.02-.83,1.56-1.98,1.64-3.46v-.46h-5.25v-2.62h8.23v10.36h-2.35l-.32-2.71c-.54.79-1.31,1.47-2.31,2.03-1,.56-2.19.84-3.56.84-1.75,0-3.3-.4-4.65-1.2-1.35-.8-2.41-1.93-3.17-3.4s-1.14-3.14-1.14-5.03.37-3.59,1.12-5.05,1.82-2.58,3.21-3.38Z"/>
      <path d="M777.97,467.62h3.71l7.06,18.94h-3.33l-1.79-4.68h-7.77l-1.76,4.68h-3.22l7.09-18.94ZM782.76,479.23l-3.03-8.25-3,8.25h6.03Z"/>
      <path d="M807.56,468.66c1.39-.8,3.01-1.2,4.87-1.2,2.18,0,4,.6,5.44,1.79s2.33,2.8,2.65,4.82h-3.08c-.31-1.21-.91-2.16-1.8-2.84-.89-.69-1.99-1.03-3.29-1.03-1.19,0-2.23.29-3.13.88-.89.59-1.58,1.4-2.07,2.44-.49,1.04-.73,2.23-.73,3.59s.24,2.55.72,3.59c.48,1.04,1.16,1.85,2.06,2.44.89.59,1.93.88,3.13.88,1.52,0,2.78-.42,3.8-1.25,1.02-.83,1.56-1.98,1.64-3.46v-.46h-5.25v-2.62h8.23v10.36h-2.35l-.32-2.71c-.54.79-1.31,1.47-2.31,2.03-1,.56-2.19.84-3.56.84-1.75,0-3.3-.4-4.65-1.2-1.35-.8-2.41-1.93-3.17-3.4s-1.14-3.14-1.14-5.03.37-3.59,1.12-5.05c.75-1.45,1.82-2.58,3.21-3.38Z"/>
      <path d="M850.65,467.62v2.76h-9.25v5.25h7.63v2.68h-7.63v5.49h9.58v2.76h-12.69v-18.94h12.37Z"/>
      <path d="M867.59,467.62h2.84l9.23,13.42v-13.42h3.06v18.94h-2.84l-9.23-13.42v13.42h-3.06v-18.94Z"/>
      <path d="M903.85,468.66c1.38-.8,2.99-1.2,4.83-1.2,1.43,0,2.71.27,3.86.81,1.15.54,2.08,1.31,2.8,2.31.72,1,1.18,2.16,1.38,3.48h-3.11c-.31-1.21-.9-2.16-1.79-2.84s-1.98-1.03-3.27-1.03c-1.17,0-2.2.29-3.09.88s-1.56,1.4-2.03,2.44c-.47,1.04-.7,2.23-.7,3.59s.23,2.53.7,3.57c.47,1.05,1.15,1.86,2.03,2.45.88.59,1.91.88,3.09.88,1.3,0,2.39-.34,3.26-1.03.87-.69,1.47-1.63,1.77-2.84h3.11c-.2,1.33-.65,2.5-1.37,3.49-.71.99-1.64,1.76-2.77,2.3-1.14.54-2.43.81-3.87.81-1.84,0-3.45-.4-4.83-1.19-1.38-.79-2.44-1.92-3.19-3.37-.75-1.45-1.12-3.14-1.12-5.07s.37-3.59,1.12-5.05,1.81-2.58,3.19-3.38Z"/>
      <path d="M934.44,467.59l4.98,8.69,5.11-8.69h3.49l-7.06,11.96v7.01h-3.11v-7.01l-7.06-11.96h3.65Z"/>
    </g>
    <rect x="802.8" y="409.08" width="5.7" height="5.7"/>
  </g>
</svg>