<?xml version="1.0" encoding="UTF-8"?>
<svg id="Layer_2" data-name="Layer 2" xmlns="http://www.w3.org/2000/svg" viewBox="0 0 1019.14 151.24">
  <defs>
    <style>
      .cls-1 {
        fill: #fff;
      }

      .cls-2 {
        fill: #fed52b;
      }

      .cls-3 {
        fill: #3aab43;
      }
    </style>
  </defs>
  <g id="Layer_1-2" data-name="Layer 1">
    <g>
      <g>
        <g>
          <path class="cls-2" d="M81.03,26.64v34.98c0,5.46-6.6,8.19-10.46,4.33l-24.37-24.37c-2.65-2.65-2.31-7.03.7-9.28,7.81-5.83,17-9.92,26.98-11.7,3.73-.67,7.15,2.25,7.15,6.04"/>
          <path class="cls-2" d="M64.82,101.2l-29.2,22.85c-.71-.4-1.35-.95-1.88-1.65-5.2-6.97-9.04-15.05-11.07-23.8-.9-3.83,2.04-7.49,5.98-7.49h31.5c5.29,0,8.03,6.2,4.67,10.1Z"/>
          <path class="cls-2" d="M60.16,82.5H27.6c-3.73,0-6.55-3.29-6.07-6.99,1.25-9.6,4.62-18.54,9.62-26.33,2.11-3.28,6.73-3.76,9.49-1l23.86,23.86c3.86,3.86,1.13,10.46-4.33,10.46"/>
          <path class="cls-2" d="M124.47,41.57l-24.38,24.38c-3.86,3.86-10.46,1.13-10.46-4.33V26.63c0-3.79,3.42-6.71,7.15-6.04,9.99,1.78,19.17,5.88,26.99,11.71,3.01,2.24,3.35,6.62.7,9.28"/>
          <path class="cls-2" d="M131.57,58.18l10.15,11.39-16.58,12.93h-14.63c-5.46,0-8.19-6.61-4.34-10.47l23.86-23.85c2.76-2.76,7.37-2.29,9.48,1,1.64,2.56,3.11,5.24,4.38,8.04l-12.33.96Z"/>
        </g>
        <circle class="cls-2" cx="85.93" cy="83.92" r="13.97"/>
        <path class="cls-3" d="M171.73,61.4l-26.95,2.1,6.15,6.9-45.79,35.73-16.81-15.3-57.43,44.94-9.21,7.22c1.12,1.26,2.29,2.5,3.48,3.7,1.58,1.58,3.22,3.09,4.92,4.55l9.42-7.37,48.26-37.77,16.79,15.3,54.15-42.25,5.6,6.29,7.41-24.03Z"/>
        <path class="cls-3" d="M146.69,25.17C131.16,9.62,109.64,0,85.93,0c-23.71,0-45.23,9.62-60.76,25.17C9.63,40.69,0,62.21,0,85.93c0,19.6,6.59,37.72,17.67,52.18l9.19-7.21c-9.54-12.48-15.19-28.05-15.19-44.97,0-20.53,8.3-39.05,21.75-52.51,13.45-13.44,31.98-21.74,52.5-21.74s39.05,8.3,52.51,21.74c6.57,6.59,11.92,14.38,15.65,23.02l12.21-.95c-4.35-11.49-11.09-21.8-19.61-30.31Z"/>
      </g>
      <g>
        <g>
          <path class="cls-1" d="M205.03,5.66h16.81v63.98h31.15v14.45h-47.96V5.66Z"/>
          <path class="cls-1" d="M270.63,29.47c4.37-2.43,9.43-3.64,15.18-3.64s10.96,1.14,15.41,3.42,7.92,5.49,10.42,9.64,3.79,9.02,3.87,14.62c0,2.02-.15,3.81-.45,5.38h-41.8v.45c.37,4.18,1.72,7.47,4.03,9.86,2.32,2.39,5.49,3.59,9.52,3.59,3.21,0,5.88-.69,8.01-2.07,2.13-1.38,3.53-3.42,4.2-6.11h15.58c-.6,3.81-2.06,7.25-4.37,10.31s-5.38,5.47-9.19,7.23c-3.81,1.75-8.18,2.63-13.11,2.63-6.43,0-11.97-1.2-16.64-3.59s-8.26-5.81-10.76-10.25c-2.5-4.44-3.75-9.62-3.75-15.52s1.21-11.19,3.64-15.63,5.83-7.88,10.2-10.31ZM295.4,40.45c-2.35-1.91-5.32-2.86-8.91-2.86s-6.33.99-8.68,2.97-3.75,4.65-4.2,8.01h26.11c-.52-3.51-1.96-6.22-4.31-8.12Z"/>
          <path class="cls-1" d="M414.34,52.5v31.71h-15.8v-32.27c0-8.74-3.32-13.11-9.97-13.11-3.44,0-6.2,1.21-8.29,3.64s-3.14,5.81-3.14,10.14v31.6h-15.8v-32.27c0-8.74-3.36-13.11-10.09-13.11-3.44,0-6.18,1.25-8.24,3.75-2.05,2.5-3.08,5.88-3.08,10.14v31.49h-15.8V26.5h13.78l1.46,7.17c1.94-2.47,4.26-4.37,6.95-5.72,2.69-1.34,6.05-2.05,10.09-2.13,8.22,0,13.93,3.25,17.14,9.75,2.09-3.14,4.84-5.55,8.24-7.23s7.27-2.52,11.6-2.52c6.2,0,11.24,2.05,15.13,6.16,3.88,4.11,5.83,10.94,5.83,20.51Z"/>
          <path class="cls-1" d="M425.83,70.76c-2.5-4.48-3.75-9.64-3.75-15.46s1.25-10.98,3.75-15.46c2.5-4.48,6.05-7.94,10.65-10.37,4.59-2.43,9.92-3.64,15.97-3.64s11.37,1.21,15.97,3.64c4.59,2.43,8.14,5.88,10.64,10.37,2.5,4.48,3.75,9.64,3.75,15.46s-1.25,11.08-3.75,15.52c-2.5,4.44-6.05,7.88-10.64,10.31-4.6,2.43-9.92,3.64-15.97,3.64s-11.37-1.21-15.97-3.64c-4.6-2.43-8.14-5.88-10.65-10.37ZM466.78,55.3c0-4.93-1.29-8.93-3.87-11.99-2.58-3.06-6.07-4.59-10.48-4.59s-7.79,1.53-10.37,4.59c-2.58,3.06-3.87,7.06-3.87,11.99s1.29,8.93,3.87,11.99c2.58,3.06,6.03,4.59,10.37,4.59s7.9-1.53,10.48-4.59c2.58-3.06,3.87-7.06,3.87-11.99Z"/>
          <path class="cls-1" d="M547.68,52.83v31.26h-15.8v-30.37c0-9.93-3.89-14.9-11.65-14.9-4.11,0-7.28,1.38-9.52,4.15-2.24,2.76-3.36,6.65-3.36,11.65v29.47h-15.8V26.5h13.78l1.46,7.17c2.02-2.47,4.44-4.39,7.28-5.77,2.84-1.38,6.35-2.07,10.53-2.07,6.72,0,12.25,2.09,16.58,6.27,4.33,4.18,6.5,11.09,6.5,20.73Z"/>
          <path class="cls-1" d="M608.86,46.67v37.43h-13.89l-1.23-7.28c-2.17,2.61-4.65,4.59-7.45,5.94-2.8,1.34-6.14,2.02-10.03,2.02-6.35,0-11.41-1.49-15.18-4.48-3.77-2.99-5.66-7.17-5.66-12.55,0-6.13,2.26-10.83,6.78-14.12,4.52-3.29,11.11-4.93,19.78-4.93h11.32v-2.91c0-2.61-.95-4.67-2.86-6.16-1.91-1.49-4.46-2.24-7.68-2.24-2.99,0-5.43.64-7.34,1.91-1.91,1.27-3.04,2.99-3.42,5.15h-15.24c.52-5.9,3.14-10.48,7.84-13.73,4.71-3.25,10.94-4.87,18.71-4.87s14.44,1.77,18.88,5.32,6.67,8.72,6.67,15.52ZM593.29,60.34v-1.12h-11.54c-3.29,0-5.85.65-7.68,1.96s-2.75,3.16-2.75,5.55c0,2.02.76,3.62,2.3,4.82,1.53,1.2,3.6,1.79,6.22,1.79,4.11,0,7.36-1.18,9.75-3.53,2.39-2.35,3.62-5.51,3.7-9.47Z"/>
          <path class="cls-1" d="M676.43,84.1h-13.78l-1.57-7.96c-4.41,5.75-10.38,8.63-17.93,8.63-5.08,0-9.64-1.21-13.67-3.64-4.03-2.43-7.19-5.88-9.47-10.37-2.28-4.48-3.42-9.67-3.42-15.58s1.14-10.96,3.42-15.41c2.28-4.44,5.45-7.88,9.52-10.31,4.07-2.43,8.65-3.64,13.73-3.64,7.47,0,13.26,2.61,17.37,7.84V5.66h15.8v78.44ZM660.86,55.41c0-5.01-1.27-9.04-3.81-12.1-2.54-3.06-5.94-4.59-10.2-4.59s-7.68,1.53-10.25,4.59c-2.58,3.06-3.87,7.06-3.87,11.99s1.29,8.93,3.87,11.99c2.58,3.06,6,4.59,10.25,4.59s7.66-1.51,10.2-4.54,3.81-7,3.81-11.93Z"/>
          <path class="cls-1" d="M699.01,29.47c4.37-2.43,9.43-3.64,15.18-3.64s10.96,1.14,15.41,3.42,7.92,5.49,10.42,9.64c2.5,4.15,3.79,9.02,3.87,14.62,0,2.02-.15,3.81-.45,5.38h-41.8v.45c.37,4.18,1.72,7.47,4.03,9.86,2.32,2.39,5.49,3.59,9.52,3.59,3.21,0,5.88-.69,8.01-2.07,2.13-1.38,3.53-3.42,4.2-6.11h15.58c-.6,3.81-2.06,7.25-4.37,10.31s-5.38,5.47-9.19,7.23c-3.81,1.75-8.18,2.63-13.11,2.63-6.43,0-11.97-1.2-16.64-3.59s-8.26-5.81-10.76-10.25c-2.5-4.44-3.75-9.62-3.75-15.52s1.21-11.19,3.64-15.63c2.43-4.44,5.83-7.88,10.2-10.31ZM723.77,40.45c-2.35-1.91-5.32-2.86-8.91-2.86s-6.33.99-8.68,2.97-3.75,4.65-4.2,8.01h26.11c-.52-3.51-1.96-6.22-4.31-8.12Z"/>
          <path class="cls-1" d="M780.58,25.83v58.27h-9.75V25.83h9.75Z"/>
          <path class="cls-1" d="M846.47,84.1h-7.96l-1.23-9.19c-4.78,6.57-11.32,9.86-19.61,9.86-5.3,0-10.03-1.16-14.17-3.47s-7.4-5.68-9.75-10.09c-2.35-4.41-3.53-9.64-3.53-15.69s1.18-10.83,3.53-15.24c2.35-4.41,5.62-7.84,9.8-10.31,4.18-2.46,8.89-3.7,14.12-3.7,4.63,0,8.59.84,11.88,2.52,3.29,1.68,5.86,3.98,7.73,6.89V5.66h9.19v78.44ZM835.04,66.56c1.57-3.17,2.35-6.78,2.35-10.81s-.78-7.79-2.35-11.04c-1.57-3.25-3.79-5.77-6.67-7.56-2.88-1.79-6.14-2.69-9.8-2.69-5.68,0-10.25,1.96-13.73,5.88-3.47,3.92-5.21,8.98-5.21,15.18s1.74,11.26,5.21,15.18c3.47,3.92,8.05,5.88,13.73,5.88,3.66,0,6.93-.88,9.8-2.63,2.88-1.76,5.1-4.22,6.67-7.4Z"/>
          <path class="cls-1" d="M867.76,29.92c4.11-2.43,8.81-3.64,14.12-3.64s9.86,1.08,13.89,3.25c4.03,2.17,7.21,5.3,9.52,9.41,2.32,4.11,3.55,8.93,3.7,14.45,0,.82-.08,2.13-.22,3.92h-44.37v.78c.15,5.6,1.87,10.08,5.15,13.45,3.29,3.36,7.58,5.04,12.89,5.04,4.11,0,7.6-1.03,10.48-3.08,2.88-2.05,4.8-4.91,5.77-8.57h9.3c-1.12,5.83-3.92,10.59-8.4,14.29-4.48,3.7-9.97,5.55-16.47,5.55-5.68,0-10.65-1.21-14.9-3.64-4.26-2.43-7.56-5.86-9.92-10.31s-3.53-9.54-3.53-15.3,1.14-10.94,3.42-15.35,5.47-7.82,9.58-10.25ZM894.03,38.38c-3.17-2.69-7.19-4.03-12.05-4.03-4.33,0-8.14,1.42-11.43,4.26-3.29,2.84-5.15,6.54-5.6,11.09h34.51c-.45-4.86-2.26-8.63-5.43-11.32Z"/>
          <path class="cls-1" d="M964.12,46.9v37.2h-7.96l-.78-8.96c-4.48,6.43-10.87,9.64-19.16,9.64-6.35,0-11.45-1.49-15.3-4.48-3.85-2.99-5.77-7.06-5.77-12.21,0-5.75,1.96-10.16,5.88-13.22,3.92-3.06,9.62-4.59,17.09-4.59h16.81v-3.92c0-3.74-1.25-6.65-3.75-8.74-2.5-2.09-6-3.14-10.48-3.14-3.96,0-7.23.88-9.8,2.63-2.58,1.75-4.16,4.09-4.76,7h-9.19c.67-5.6,3.16-9.97,7.45-13.11,4.29-3.14,9.88-4.71,16.75-4.71,7.32,0,12.98,1.77,16.98,5.32,4,3.55,6,8.65,6,15.3ZM937.23,57.99c-8.52,0-12.78,3.17-12.78,9.52,0,2.84,1.12,5.12,3.36,6.83,2.24,1.72,5.27,2.58,9.08,2.58,5.6,0,10.01-1.48,13.22-4.43,3.21-2.95,4.82-6.85,4.82-11.71v-2.8h-17.7Z"/>
          <path class="cls-1" d="M985.36,73.68c2.88,2.17,6.59,3.25,11.15,3.25,4.03,0,7.3-.8,9.81-2.41,2.5-1.61,3.75-3.72,3.75-6.33,0-2.24-.6-3.96-1.79-5.15-1.2-1.19-2.75-2.02-4.65-2.46s-4.61-.9-8.12-1.34c-4.93-.6-8.96-1.38-12.1-2.35-3.14-.97-5.68-2.52-7.62-4.65s-2.91-5.06-2.91-8.8c0-3.36.95-6.35,2.86-8.96,1.91-2.61,4.5-4.65,7.79-6.11,3.29-1.46,6.98-2.19,11.09-2.19,6.72,0,12.19,1.57,16.42,4.71,4.22,3.14,6.56,7.62,7,13.45h-9.19c-.37-2.99-1.83-5.45-4.37-7.4s-5.71-2.91-9.52-2.91-7.02.8-9.41,2.41c-2.39,1.61-3.59,3.72-3.59,6.33,0,1.94.56,3.44,1.68,4.48s2.56,1.75,4.31,2.13c1.75.37,4.42.78,8.01,1.23,5,.6,9.13,1.42,12.38,2.47,3.25,1.05,5.87,2.73,7.84,5.04,1.98,2.32,2.97,5.45,2.97,9.41,0,3.44-1.01,6.46-3.03,9.08s-4.74,4.63-8.18,6.05-7.25,2.13-11.43,2.13c-7.47,0-13.46-1.72-17.98-5.15-4.52-3.44-6.82-8.22-6.89-14.34h9.19c.15,3.44,1.66,6.24,4.54,8.4Z"/>
        </g>
        <g>
          <path class="cls-1" d="M211.92,105.75l10.36,25.49,10.18-25.49h6.76v32.39h-5.14v-23.83l-9.72,23.83h-4.49l-9.72-23.83v23.83h-5.14v-32.39h6.89Z"/>
          <path class="cls-1" d="M278.74,105.75h6.34l12.08,32.39h-5.69l-3.05-8h-13.28l-3.01,8h-5.51l12.12-32.39ZM286.93,125.6l-5.18-14.11-5.14,14.11h10.32Z"/>
          <path class="cls-1" d="M343.25,107.02c1.7.85,3.02,2.05,3.96,3.61.94,1.56,1.41,3.37,1.41,5.44s-.57,4.05-1.71,5.69c-1.14,1.63-2.67,2.79-4.58,3.47l6.85,12.91h-5.92l-6.15-11.75h-7.22v11.75h-5.32v-32.39h12.77c2.25,0,4.23.42,5.92,1.27ZM336.92,121.76c1.91,0,3.43-.52,4.56-1.55,1.13-1.03,1.69-2.41,1.69-4.14s-.56-3.11-1.69-4.14c-1.12-1.03-2.65-1.55-4.56-1.55h-7.03v11.38h7.03Z"/>
          <path class="cls-1" d="M382.87,105.75v16.7l14.85-16.7h6.48l-11.89,13.51,12.77,18.88h-6.43l-10.13-14.81-5.64,6.34v8.47h-5.32v-32.39h5.32Z"/>
          <path class="cls-1" d="M453.21,105.75v4.72h-15.82v8.98h13.05v4.58h-13.05v9.39h16.38v4.72h-21.7v-32.39h21.14Z"/>
          <path class="cls-1" d="M504.99,105.75v4.72h-9.99v27.67h-5.32v-27.67h-9.99v-4.72h25.31Z"/>
          <path class="cls-1" d="M538.41,105.75v32.39h-5.32v-32.39h5.32Z"/>
          <path class="cls-1" d="M568.4,105.75h4.86l15.78,22.95v-22.95h5.23v32.39h-4.86l-15.78-22.95v22.95h-5.23v-32.39Z"/>
          <path class="cls-1" d="M630.41,107.53c2.38-1.37,5.15-2.06,8.33-2.06,3.73,0,6.83,1.02,9.3,3.05,2.47,2.04,3.98,4.78,4.53,8.24h-5.27c-.52-2.07-1.55-3.69-3.08-4.86-1.53-1.17-3.4-1.76-5.62-1.76-2.04,0-3.82.5-5.34,1.5-1.53,1-2.71,2.39-3.54,4.16-.83,1.77-1.25,3.82-1.25,6.13s.41,4.36,1.23,6.13c.82,1.77,1.99,3.16,3.52,4.16,1.53,1,3.31,1.5,5.34,1.5,2.59,0,4.76-.71,6.5-2.13,1.74-1.42,2.68-3.39,2.8-5.92v-.79h-8.98v-4.49h14.06v17.72h-4.02l-.55-4.63c-.93,1.36-2.24,2.51-3.96,3.47-1.71.96-3.74,1.43-6.08,1.43-2.99,0-5.64-.69-7.96-2.06-2.31-1.37-4.12-3.31-5.41-5.81s-1.94-5.37-1.94-8.61.64-6.15,1.92-8.63c1.28-2.48,3.11-4.41,5.48-5.78Z"/>
          <path class="cls-1" d="M728.38,105.75h6.34l12.08,32.39h-5.69l-3.05-8h-13.28l-3.01,8h-5.51l12.12-32.39ZM736.57,125.6l-5.18-14.11-5.14,14.11h10.32Z"/>
          <path class="cls-1" d="M778.96,107.53c2.38-1.37,5.15-2.06,8.33-2.06,3.73,0,6.83,1.02,9.3,3.05,2.47,2.04,3.98,4.78,4.53,8.24h-5.27c-.52-2.07-1.55-3.69-3.08-4.86-1.53-1.17-3.4-1.76-5.62-1.76-2.04,0-3.82.5-5.34,1.5-1.53,1-2.71,2.39-3.54,4.16-.83,1.77-1.25,3.82-1.25,6.13s.41,4.36,1.23,6.13c.82,1.77,1.99,3.16,3.52,4.16,1.53,1,3.31,1.5,5.34,1.5,2.59,0,4.76-.71,6.5-2.13,1.74-1.42,2.68-3.39,2.8-5.92v-.79h-8.98v-4.49h14.06v17.72h-4.02l-.55-4.63c-.93,1.36-2.24,2.51-3.96,3.47-1.71.96-3.74,1.43-6.08,1.43-2.99,0-5.64-.69-7.96-2.06-2.31-1.37-4.12-3.31-5.41-5.81-1.3-2.5-1.94-5.37-1.94-8.61s.64-6.15,1.92-8.63c1.28-2.48,3.11-4.41,5.48-5.78Z"/>
          <path class="cls-1" d="M852.64,105.75v4.72h-15.82v8.98h13.05v4.58h-13.05v9.39h16.38v4.72h-21.7v-32.39h21.14Z"/>
          <path class="cls-1" d="M881.61,105.75h4.86l15.78,22.95v-22.95h5.23v32.39h-4.86l-15.78-22.95v22.95h-5.23v-32.39Z"/>
          <path class="cls-1" d="M943.6,107.53c2.36-1.37,5.11-2.06,8.26-2.06,2.44,0,4.64.46,6.59,1.39,1.96.93,3.55,2.24,4.79,3.96,1.23,1.71,2.02,3.69,2.36,5.95h-5.32c-.52-2.07-1.54-3.69-3.05-4.86s-3.38-1.76-5.6-1.76c-2.01,0-3.76.5-5.28,1.5s-2.67,2.39-3.47,4.16c-.8,1.77-1.2,3.82-1.2,6.13s.4,4.32,1.2,6.11c.8,1.79,1.96,3.18,3.47,4.19,1.51,1,3.27,1.5,5.28,1.5,2.22,0,4.08-.59,5.58-1.76,1.49-1.17,2.51-2.79,3.03-4.86h5.32c-.34,2.28-1.12,4.27-2.34,5.97-1.22,1.7-2.8,3.01-4.74,3.93-1.94.93-4.15,1.39-6.62,1.39-3.15,0-5.9-.68-8.26-2.04-2.36-1.36-4.18-3.28-5.46-5.76-1.28-2.48-1.92-5.37-1.92-8.68s.64-6.15,1.92-8.63c1.28-2.48,3.1-4.41,5.46-5.78Z"/>
          <path class="cls-1" d="M995.92,105.7l8.51,14.85,8.75-14.85h5.97l-12.08,20.45v11.98h-5.32v-11.98l-12.07-20.45h6.25Z"/>
        </g>
        <rect class="cls-1" x="770.83" y="5.66" width="9.75" height="9.75"/>
      </g>
    </g>
  </g>
</svg>